<svg width="20" height="20" viewBox="0 0 16 17" fill="none" xmlns="http://www.w3.org/2000/svg">
    <path
        d="M8.33323 15.1667H2.7199C1.94657 15.1667 1.31323 14.5467 1.31323 13.7867V3.89336C1.31323 2.1467 2.61323 1.35336 4.20657 2.13336L7.16657 3.5867C7.80657 3.90003 8.33323 4.73336 8.33323 5.44003V15.1667Z"
        stroke="" stroke-width="1.5" stroke-linecap="round" stroke-linejoin="round" />
    <path
        d="M14.6466 10.5401V13.0601C14.6466 14.5001 13.9799 15.1668 12.5399 15.1668H8.33325V7.44678L8.64659 7.51344L11.6466 8.18678L12.9999 8.48678C13.8799 8.68011 14.5999 9.13344 14.6399 10.4134C14.6466 10.4534 14.6466 10.4934 14.6466 10.5401Z"
        stroke="" stroke-width="1.5" stroke-linecap="round" stroke-linejoin="round" />
    <path d="M3.66675 6.50012H5.98008" stroke="" stroke-width="1.5" stroke-linecap="round"
        stroke-linejoin="round" />
    <path d="M3.66675 9.16675H5.98008" stroke="" stroke-width="1.5" stroke-linecap="round"
        stroke-linejoin="round" />
    <path
        d="M11.6467 8.18676V10.3334C11.6467 11.1601 10.9734 11.8334 10.1467 11.8334C9.32006 11.8334 8.64673 11.1601 8.64673 10.3334V7.51343L11.6467 8.18676Z"
        stroke="" stroke-width="1.5" stroke-linecap="round" stroke-linejoin="round" />
    <path
        d="M14.6401 10.4134C14.6001 11.2001 13.9467 11.8334 13.1467 11.8334C12.3201 11.8334 11.6467 11.1601 11.6467 10.3334V8.18677L13.0001 8.48677C13.8801 8.6801 14.6001 9.13343 14.6401 10.4134Z"
        stroke="" stroke-width="1.5" stroke-linecap="round" stroke-linejoin="round" />
</svg>