<svg  viewBox="0 0 56 48" fill="none" xmlns="http://www.w3.org/2000/svg">
<rect width="56" height="48" rx="24" fill="#E4572B"/>
<path d="M25.03 33.69L27.36 31.73C27.71 31.43 28.29 31.43 28.64 31.73L30.97 33.69C31.51 33.96 32.17 33.69 32.37 33.11L32.81 31.78C32.92 31.46 32.81 30.99 32.57 30.75L30.3 28.47C30.13 28.31 30 27.99 30 27.76V24.91C30 24.49 30.31 24.29 30.7 24.45L35.61 26.57C36.38 26.9 37.01 26.49 37.01 25.65V24.36C37.01 23.69 36.51 22.92 35.89 22.66L30.3 20.25C30.14 20.18 30 19.97 30 19.79V16.79C30 15.85 29.31 14.74 28.47 14.31C28.17 14.16 27.82 14.16 27.52 14.31C26.68 14.74 25.99 15.86 25.99 16.8V19.8C25.99 19.98 25.85 20.19 25.69 20.26L20.11 22.67C19.49 22.92 18.99 23.69 18.99 24.36V25.65C18.99 26.49 19.62 26.9 20.39 26.57L25.3 24.45C25.68 24.28 26 24.49 26 24.91V27.76C26 27.99 25.87 28.31 25.71 28.47L23.44 30.75C23.2 30.99 23.09 31.45 23.2 31.78L23.64 33.11C23.82 33.69 24.48 33.97 25.03 33.69Z" stroke="white" stroke-width="1.5" stroke-linecap="round" stroke-linejoin="round"/>
</svg>
