<svg width="342" height="48" viewBox="0 0 342 48" fill="none" xmlns="http://www.w3.org/2000/svg">
<rect width="342" height="48" rx="24" fill="#E4572B"/>
<path d="M168.03 33.69L170.36 31.73C170.71 31.43 171.29 31.43 171.64 31.73L173.97 33.69C174.51 33.96 175.17 33.69 175.37 33.11L175.81 31.78C175.92 31.46 175.81 30.99 175.57 30.75L173.3 28.47C173.13 28.31 173 27.99 173 27.76V24.91C173 24.49 173.31 24.29 173.7 24.45L178.61 26.57C179.38 26.9 180.01 26.49 180.01 25.65V24.36C180.01 23.69 179.51 22.92 178.89 22.66L173.3 20.25C173.14 20.18 173 19.97 173 19.79V16.79C173 15.85 172.31 14.74 171.47 14.31C171.17 14.16 170.82 14.16 170.52 14.31C169.68 14.74 168.99 15.86 168.99 16.8V19.8C168.99 19.98 168.85 20.19 168.69 20.26L163.11 22.67C162.49 22.92 161.99 23.69 161.99 24.36V25.65C161.99 26.49 162.62 26.9 163.39 26.57L168.3 24.45C168.68 24.28 169 24.49 169 24.91V27.76C169 27.99 168.87 28.31 168.71 28.47L166.44 30.75C166.2 30.99 166.09 31.45 166.2 31.78L166.64 33.11C166.82 33.69 167.48 33.97 168.03 33.69Z" stroke="white" stroke-width="1.5" stroke-linecap="round" stroke-linejoin="round"/>
</svg>
