<svg width="46" height="45" viewBox="0 0 46 45" fill="none" xmlns="http://www.w3.org/2000/svg">
<rect width="46" height="45" rx="22.5" fill="#E4572B"/>
<path d="M29.3 16.21C29.2075 16.1173 29.0976 16.0437 28.9766 15.9935C28.8556 15.9434 28.7259 15.9175 28.595 15.9175C28.464 15.9175 28.3343 15.9434 28.2134 15.9935C28.0924 16.0437 27.9825 16.1173 27.89 16.21L23 21.09L18.11 16.2C18.0174 16.1074 17.9075 16.034 17.7865 15.9839C17.6656 15.9337 17.5359 15.908 17.405 15.908C17.274 15.908 17.1444 15.9337 17.0234 15.9839C16.9025 16.034 16.7926 16.1074 16.7 16.2C16.6074 16.2926 16.534 16.4025 16.4839 16.5234C16.4337 16.6444 16.408 16.774 16.408 16.905C16.408 17.0359 16.4337 17.1656 16.4839 17.2865C16.534 17.4075 16.6074 17.5174 16.7 17.61L21.59 22.5L16.7 27.39C16.6074 27.4826 16.534 27.5925 16.4839 27.7134C16.4337 27.8344 16.408 27.964 16.408 28.095C16.408 28.2259 16.4337 28.3556 16.4839 28.4765C16.534 28.5975 16.6074 28.7074 16.7 28.8C16.7926 28.8926 16.9025 28.966 17.0234 29.0161C17.1444 29.0662 17.274 29.092 17.405 29.092C17.5359 29.092 17.6656 29.0662 17.7865 29.0161C17.9075 28.966 18.0174 28.8926 18.11 28.8L23 23.91L27.89 28.8C27.9826 28.8926 28.0925 28.966 28.2134 29.0161C28.3344 29.0662 28.464 29.092 28.595 29.092C28.7259 29.092 28.8556 29.0662 28.9765 29.0161C29.0975 28.966 29.2074 28.8926 29.3 28.8C29.3926 28.7074 29.466 28.5975 29.5161 28.4765C29.5662 28.3556 29.592 28.2259 29.592 28.095C29.592 27.964 29.5662 27.8344 29.5161 27.7134C29.466 27.5925 29.3926 27.4826 29.3 27.39L24.41 22.5L29.3 17.61C29.68 17.23 29.68 16.59 29.3 16.21Z" fill="white"/>
</svg>
