<svg width="20" height="20" viewBox="0 0 20 13" fill="none" xmlns="http://www.w3.org/2000/svg">
<path d="M7.2093 13H1.62791C0.734884 13 0 12.2393 0 11.3148V1.68519C0 0.760741 0.734884 0 1.62791 0H6.27907C8.20465 0 9.76744 1.61778 9.76744 3.61111C9.76744 4.60296 9.37674 5.49852 8.75349 6.15333C9.90698 6.74074 10.6977 7.97333 10.6977 9.38889C10.6977 11.3822 9.13488 13 7.2093 13ZM1.39535 7.22222V11.3148C1.39535 11.4496 1.49767 11.5556 1.62791 11.5556H7.2093C8.36279 11.5556 9.30233 10.583 9.30233 9.38889C9.30233 8.19481 8.36279 7.22222 7.2093 7.22222H1.39535ZM1.39535 5.77778H6.27907C7.43256 5.77778 8.37209 4.80519 8.37209 3.61111C8.37209 2.41704 7.43256 1.44444 6.27907 1.44444H1.62791C1.49767 1.44444 1.39535 1.55037 1.39535 1.68519V5.77778ZM17.1349 13H15.5814C13.1442 13 11.1628 10.9489 11.1628 8.42593C11.1628 5.90296 13.1442 3.85185 15.5814 3.85185C18.0186 3.85185 20 5.90296 20 8.42593C20 8.82074 19.6837 9.14815 19.3023 9.14815H12.6419C12.9581 10.5252 14.1581 11.5556 15.5814 11.5556H17.1349C17.5163 11.5556 17.8326 11.883 17.8326 12.2778C17.8326 12.6726 17.5163 13 17.1349 13ZM12.6419 7.7037H18.5302C18.3721 7.01929 17.9962 6.4098 17.4631 5.97317C16.93 5.53655 16.2705 5.29815 15.5907 5.2963C14.9098 5.29803 14.2492 5.5362 13.7145 5.97267C13.1799 6.40914 12.8022 7.01868 12.6419 7.7037ZM16.9767 2.88889H14.186C13.8047 2.88889 13.4884 2.56148 13.4884 2.16667C13.4884 1.77185 13.8047 1.44444 14.186 1.44444H16.9767C17.3581 1.44444 17.6744 1.77185 17.6744 2.16667C17.6744 2.56148 17.3581 2.88889 16.9767 2.88889Z" fill="white"/>
</svg>
