<svg width="20" height="20" viewBox="0 0 20 20" fill="none" xmlns="http://www.w3.org/2000/svg">
<path fill-rule="evenodd" clip-rule="evenodd" d="M13.87 18.908C13.9 19.068 13.81 19.238 13.66 19.298C12.53 19.748 11.29 19.988 10.01 19.988C7.8 19.988 5.76 19.278 4.11 18.058C3.97 17.958 3.93 17.758 4.02 17.608C4.57 16.628 6.72 13.478 11.47 11.718C11.65 11.648 11.85 11.738 11.91 11.918C13.1 15.108 13.66 17.808 13.87 18.908ZM19.81 11.876C19.3514 14.2948 18.0071 16.4556 16.04 17.936C15.83 18.096 15.53 17.976 15.48 17.726C15.27 16.646 14.76 14.316 13.78 11.546C13.71 11.336 13.85 11.106 14.07 11.076C16.56 10.776 18.74 11.256 19.56 11.476C19.73 11.536 19.84 11.706 19.81 11.876ZM19.58 9.807C18.56 9.627 15.96 9.247 13.3 9.537C13.14 9.557 13 9.467 12.93 9.317C12.89 9.227 12.86 9.137 12.82 9.047C12.66 8.677 12.49 8.297 12.32 7.927C12.23 7.747 12.32 7.527 12.5 7.447C15.3 6.237 16.86 4.677 17.47 3.977C17.62 3.807 17.88 3.817 18.02 3.997C19.2002 5.56802 19.886 7.45482 19.99 9.417C20 9.667 19.8 9.847 19.58 9.807ZM16.43 2.78C15.91 3.41 14.45 4.91 11.68 6.01C11.5998 6.04238 11.5105 6.04394 11.4293 6.0144C11.3481 5.98486 11.2806 5.9263 11.24 5.85C10.2487 4.07263 9.15691 2.35318 7.97 0.7C7.82 0.49 7.94 0.19 8.19 0.15C8.77 0.0499999 9.38 0 10 0C12.42 0 14.65 0.86 16.38 2.3C16.53 2.41 16.55 2.63 16.43 2.78ZM9.01 6.828C5.22 7.778 1.87 7.908 0.65 7.928C0.42 7.928 0.25 7.708 0.31 7.488C1.03 4.688 2.95 2.348 5.48 1.058C5.63 0.978 5.82 1.028 5.92 1.168C6.44 1.888 7.85 3.918 9.23 6.308C9.34 6.508 9.24 6.768 9.01 6.828ZM10.91 9.587C11 9.777 10.89 10.007 10.69 10.077C6.26 11.507 3.61 15.057 2.81 16.277C2.68 16.477 2.4 16.487 2.25 16.307C0.85 14.587 0 12.617 0 10.227V10.047C0 9.847 0.16 9.687 0.36 9.697C1.62 9.747 5.73 9.577 10 8.347C10.16 8.297 10.34 8.377 10.41 8.527C10.58 8.877 10.75 9.227 10.91 9.587Z" fill="white"/>
</svg>
