<svg width="39" height="39" viewBox="0 0 39 39" fill="none" xmlns="http://www.w3.org/2000/svg">
<path d="M22.5712 4.67998L14.95 3.47748C8.59624 2.48623 5.65499 4.63123 4.64749 10.985L3.44499 18.6062C2.79499 22.7662 3.47749 25.4637 5.83374 27.105C7.06874 27.9825 8.75874 28.5675 10.9525 28.9087L18.5737 30.1112C24.9275 31.1025 27.8687 28.9575 28.8762 22.6037L30.0625 14.9825C30.2575 13.7312 30.3387 12.61 30.2737 11.6187C30.0625 7.55623 27.6737 5.47623 22.5712 4.67998ZM13.39 15.1937C11.4887 15.1937 9.94499 13.65 9.94499 11.765C9.94499 9.86373 11.4887 8.31998 13.39 8.31998C15.275 8.31998 16.8187 9.86373 16.8187 11.765C16.8187 13.65 15.275 15.1937 13.39 15.1937Z" fill="#E4572B"/>
<path d="M33.3125 21.8888L30.875 29.2175C28.8437 35.3275 25.5937 36.9525 19.4837 34.9213L12.155 32.4838C9.86373 31.72 8.20623 30.7775 7.13373 29.5913C8.15748 29.9975 9.34373 30.3063 10.6925 30.5175L18.33 31.72C19.37 31.8825 20.345 31.9638 21.255 31.9638C26.6175 31.9638 29.4937 29.0713 30.485 22.8475L31.6712 15.2263C31.8337 14.2838 31.8987 13.455 31.8987 12.6913C34.3687 14.7225 34.7262 17.615 33.3125 21.8888Z" fill="#E4572B"/>
</svg>
