<svg width="39" height="39" viewBox="0 0 39 39" fill="none" xmlns="http://www.w3.org/2000/svg">
<path d="M19.5 30.4688C18.8338 30.4688 18.2812 29.9162 18.2812 29.25V27.625C18.2812 26.9588 18.8338 26.4062 19.5 26.4062C20.1662 26.4062 20.7188 26.9588 20.7188 27.625V29.25C20.7188 29.9162 20.1662 30.4688 19.5 30.4688Z" fill="#E4572B"/>
<path d="M19.5 36.9688C18.8338 36.9688 18.2812 36.4162 18.2812 35.75V34.125C18.2812 33.4588 18.8338 32.9062 19.5 32.9062C20.1662 32.9062 20.7188 33.4588 20.7188 34.125V35.75C20.7188 36.4162 20.1662 36.9688 19.5 36.9688Z" fill="#E4572B"/>
<path d="M3.25 36.9688C3.1525 36.9688 3.055 36.9525 2.9575 36.9363C2.3075 36.7738 1.90125 36.1075 2.06375 35.4575L3.68875 28.9575C3.85125 28.3075 4.50125 27.9013 5.1675 28.0638C5.8175 28.2263 6.22375 28.8925 6.06125 29.5425L4.43625 36.0425C4.29 36.595 3.8025 36.9688 3.25 36.9688Z" fill="#E4572B"/>
<path d="M35.348 36.5668C34.7955 36.5668 34.308 36.193 34.1618 35.6405L32.5368 29.1405C32.3743 28.4905 32.7643 27.8243 33.4305 27.6618C34.0805 27.4993 34.7468 27.8893 34.9093 28.5555L36.5343 35.0555C36.6968 35.7055 36.3068 36.3718 35.6405 36.5343C35.543 36.5505 35.4455 36.5668 35.348 36.5668Z" fill="#E4572B"/>
<path d="M31.1025 8.6125C31.1025 9.1 30.6963 9.49 30.225 9.49H8.98625C8.49875 9.49 8.10875 9.08375 8.10875 8.6125C8.10875 8.125 8.515 7.735 8.98625 7.735H10.1887L10.6438 5.60625C11.0663 3.52625 11.9437 1.625 15.4538 1.625H23.725C27.235 1.625 28.1287 3.52625 28.5512 5.59L29.0063 7.71875H30.2087C30.6963 7.71875 31.1025 8.125 31.1025 8.6125Z" fill="#E4572B"/>
<path d="M31.6063 15.275C31.4275 13.325 30.9075 11.2612 27.1213 11.2612H12.0738C8.2875 11.2612 7.78375 13.3412 7.58875 15.275L6.9225 22.4575C6.84125 23.3512 7.13375 24.245 7.75125 24.9275C8.385 25.61 9.2625 26 10.205 26H12.415C14.3325 26 14.69 24.9112 14.9338 24.18L15.1775 23.465C15.4538 22.6525 15.5188 22.4575 16.575 22.4575H22.62C23.6763 22.4575 23.7088 22.5712 24.0175 23.465L24.2613 24.18C24.4888 24.9112 24.8625 26 26.7638 26H28.9738C29.9 26 30.7938 25.61 31.4275 24.9275C32.045 24.2612 32.3375 23.3512 32.2563 22.4575L31.6063 15.275ZM16.055 17.745H12.5288C12.0413 17.745 11.6513 17.3387 11.6513 16.8675C11.6513 16.3962 12.0575 15.99 12.5288 15.99H16.0713C16.5588 15.99 16.9488 16.3962 16.9488 16.8675C16.9488 17.3387 16.5425 17.745 16.055 17.745ZM26.6663 17.745H23.1238C22.6363 17.745 22.2463 17.3387 22.2463 16.8675C22.2463 16.3962 22.6525 15.99 23.1238 15.99H26.6663C27.1538 15.99 27.5438 16.3962 27.5438 16.8675C27.5438 17.3387 27.1538 17.745 26.6663 17.745Z" fill="#E4572B"/>
</svg>
