<svg width="39" height="39" viewBox="0 0 39 39" fill="none" xmlns="http://www.w3.org/2000/svg">
<path d="M34.9375 25.1875C35.3925 25.1875 35.75 25.545 35.75 26V27.625C35.75 30.3225 33.5725 32.5 30.875 32.5C30.875 29.8188 28.6812 27.625 26 27.625C23.3188 27.625 21.125 29.8188 21.125 32.5H17.875C17.875 29.8188 15.6812 27.625 13 27.625C10.3187 27.625 8.125 29.8188 8.125 32.5C5.4275 32.5 3.25 30.3225 3.25 27.625V24.375C3.25 23.4812 3.98125 22.75 4.875 22.75H20.3125C22.555 22.75 24.375 20.93 24.375 18.6875V9.75C24.375 8.85625 25.1063 8.125 26 8.125H27.365C28.535 8.125 29.6075 8.75875 30.1925 9.76625L31.2325 11.5863C31.3787 11.8463 31.1838 12.1875 30.875 12.1875C28.6325 12.1875 26.8125 14.0075 26.8125 16.25V21.125C26.8125 23.3675 28.6325 25.1875 30.875 25.1875H34.9375Z" fill="#E4572B"/>
<path d="M13 35.75C14.7949 35.75 16.25 34.2949 16.25 32.5C16.25 30.7051 14.7949 29.25 13 29.25C11.2051 29.25 9.75 30.7051 9.75 32.5C9.75 34.2949 11.2051 35.75 13 35.75Z" fill="#E4572B"/>
<path d="M26 35.75C27.7949 35.75 29.25 34.2949 29.25 32.5C29.25 30.7051 27.7949 29.25 26 29.25C24.2051 29.25 22.75 30.7051 22.75 32.5C22.75 34.2949 24.2051 35.75 26 35.75Z" fill="#E4572B"/>
<path d="M35.75 20.3612V22.75H30.875C29.9812 22.75 29.25 22.0188 29.25 21.125V16.25C29.25 15.3562 29.9812 14.625 30.875 14.625H32.9713L35.3275 18.7525C35.6037 19.24 35.75 19.7925 35.75 20.3612Z" fill="#E4572B"/>
<path d="M21.255 3.25H9.24625C6.3375 3.25 3.9 5.33 3.36375 8.0925H10.465C11.0825 8.0925 11.57 8.59625 11.57 9.21375C11.57 9.83125 11.0825 10.3187 10.465 10.3187H3.25V12.5612H7.475C8.0925 12.5612 8.59625 13.065 8.59625 13.6825C8.59625 14.3 8.0925 14.7875 7.475 14.7875H3.25V17.03H4.50125C5.11875 17.03 5.6225 17.5337 5.6225 18.1512C5.6225 18.7687 5.11875 19.2563 4.50125 19.2563H3.25V19.63C3.25 20.5237 3.98125 21.255 4.875 21.255H19.7437C21.4012 21.255 22.75 19.9062 22.75 18.2487V4.745C22.75 3.91625 22.0837 3.25 21.255 3.25Z" fill="#E4572B"/>
<path d="M3.36375 8.09253H3.12H1.5275C0.91 8.09253 0.40625 8.59628 0.40625 9.21378C0.40625 9.83128 0.91 10.3188 1.5275 10.3188H3.00625H3.25V9.24628C3.25 8.85628 3.29875 8.46628 3.36375 8.09253Z" fill="#E4572B"/>
<path d="M3.00625 12.5613H1.5275C0.91 12.5613 0.40625 13.065 0.40625 13.6825C0.40625 14.3 0.91 14.7875 1.5275 14.7875H3.00625H3.25V12.5613H3.00625Z" fill="#E4572B"/>
<path d="M3.00625 17.03H1.5275C0.91 17.03 0.40625 17.5338 0.40625 18.1513C0.40625 18.7688 0.91 19.2563 1.5275 19.2563H3.00625H3.25V17.03H3.00625Z" fill="#E4572B"/>
</svg>
