<svg width="64" height="64" viewBox="0 0 64 64" fill="none" xmlns="http://www.w3.org/2000/svg">
<path d="M32.0002 58.6668C46.7278 58.6668 58.6668 46.7278 58.6668 32.0002C58.6668 17.2726 46.7278 5.3335 32.0002 5.3335C17.2726 5.3335 5.3335 17.2726 5.3335 32.0002C5.3335 46.7278 17.2726 58.6668 32.0002 58.6668Z" stroke="#E4572B" stroke-width="1.5" stroke-linecap="round" stroke-linejoin="round"/>
<path d="M21.3334 8H24.0001C18.8001 23.5733 18.8001 40.4267 24.0001 56H21.3334" stroke="#E4572B" stroke-width="1.5" stroke-linecap="round" stroke-linejoin="round"/>
<path d="M40 8C45.2 23.5733 45.2 40.4267 40 56" stroke="#E4572B" stroke-width="1.5" stroke-linecap="round" stroke-linejoin="round"/>
<path d="M8 42.6667V40C23.5733 45.2 40.4267 45.2 56 40V42.6667" stroke="#E4572B" stroke-width="1.5" stroke-linecap="round" stroke-linejoin="round"/>
<path d="M8 24.0001C23.5733 18.8001 40.4267 18.8001 56 24.0001" stroke="#E4572B" stroke-width="1.5" stroke-linecap="round" stroke-linejoin="round"/>
</svg>
