<svg width="64" height="64" viewBox="0 0 64 64" fill="none" xmlns="http://www.w3.org/2000/svg">
<path d="M19.9468 48.9336L28.2134 55.3336C29.2801 56.4002 31.6801 56.9336 33.2801 56.9336H43.4134C46.6134 56.9336 50.0801 54.5336 50.8801 51.3336L57.2801 31.8669C58.6134 28.1336 56.2134 24.9336 52.2134 24.9336H41.5468C39.9468 24.9336 38.6134 23.6002 38.8801 21.7336L40.2134 13.2002C40.7468 10.8002 39.1468 8.13357 36.7468 7.33357C34.6134 6.53357 31.9468 7.60024 30.8801 9.20024L19.9468 25.4669" stroke="#E4572B" stroke-width="1.5" stroke-miterlimit="10"/>
<path d="M6.34668 48.9334V22.8001C6.34668 19.0667 7.94668 17.7334 11.68 17.7334H14.3467C18.08 17.7334 19.68 19.0667 19.68 22.8001V48.9334C19.68 52.6667 18.08 54.0001 14.3467 54.0001H11.68C7.94668 54.0001 6.34668 52.6667 6.34668 48.9334Z" stroke="#E4572B" stroke-width="1.5" stroke-linecap="round" stroke-linejoin="round"/>
</svg>
