<svg width="64" height="64" viewBox="0 0 64 64" fill="none" xmlns="http://www.w3.org/2000/svg">
<path d="M27.9732 5.94666L14.6666 10.9333C11.5999 12.08 9.09326 15.7066 9.09326 18.9866V38.7999C9.09326 41.9466 11.1733 46.0799 13.7066 47.9733L25.1733 56.5333C28.9333 59.36 35.1199 59.36 38.8799 56.5333L50.3466 47.9733C52.8799 46.0799 54.9599 41.9466 54.9599 38.7999V18.9866C54.9599 15.7066 52.4532 12.08 49.3866 10.9333L36.0799 5.94666C33.8132 5.11999 30.1866 5.11999 27.9732 5.94666Z" stroke="#E4572B" stroke-width="1.5" stroke-linecap="round" stroke-linejoin="round"/>
<path d="M32.0003 29.1201C31.8937 29.1201 31.7603 29.1201 31.6536 29.1201C29.147 29.0401 27.147 26.9601 27.147 24.4268C27.147 21.8401 29.2537 19.7334 31.8403 19.7334C34.427 19.7334 36.5337 21.8401 36.5337 24.4268C36.507 26.9868 34.507 29.0401 32.0003 29.1201Z" stroke="#E4572B" stroke-width="1.5" stroke-linecap="round" stroke-linejoin="round"/>
<path d="M26.6934 36.587C24.1334 38.2936 24.1334 41.0936 26.6934 42.8003C29.6001 44.7469 34.3734 44.7469 37.2801 42.8003C39.8401 41.0936 39.8401 38.2936 37.2801 36.587C34.4001 34.6403 29.6268 34.6403 26.6934 36.587Z" stroke="#E4572B" stroke-width="1.5" stroke-linecap="round" stroke-linejoin="round"/>
</svg>
